<svg width="12.461" height="13" fill="none" xmlns="http://www.w3.org/2000/svg"><path d="M5.366.5h1.73a.75.75 0 0 1 .739.627l.142.854c.042.249.209.457.43.58.05.026.098.055.147.084a.83.83 0 0 0 .717.083l.81-.304a.75.75 0 0 1 .914.327l.864 1.498a.75.75 0 0 1-.174.954l-.668.551a.827.827 0 0 0-.287.661 4.82 4.82 0 0 1 0 .17c-.005.252.092.5.287.66l.67.552a.75.75 0 0 1 .173.954l-.865 1.498a.75.75 0 0 1-.913.327l-.811-.304a.83.83 0 0 0-.718.083c-.048.029-.097.057-.147.085a.831.831 0 0 0-.429.58l-.142.853a.75.75 0 0 1-.74.627h-1.73a.75.75 0 0 1-.739-.627l-.142-.854a.83.83 0 0 0-.43-.58 4.296 4.296 0 0 1-.146-.084.83.83 0 0 0-.718-.083l-.811.304a.75.75 0 0 1-.913-.327L.602 8.751a.752.752 0 0 1 .173-.954l.67-.551a.828.828 0 0 0 .286-.661 4.918 4.918 0 0 1 0-.17.826.826 0 0 0-.287-.66l-.67-.552a.751.751 0 0 1-.172-.954l.864-1.498a.75.75 0 0 1 .914-.327l.81.304a.83.83 0 0 0 .718-.083c.048-.029.097-.058.146-.085a.828.828 0 0 0 .43-.58l.142-.853A.75.75 0 0 1 5.366.5Z" stroke="#407BFF" stroke-linejoin="round"/><path d="M7.645 7.914a2 2 0 1 1-2.829-2.827 2 2 0 0 1 2.829 2.827Z" stroke="#407BFF" stroke-linejoin="round"/></svg>